<svg width="33" height="37" viewBox="0 0 33 37" fill="none" xmlns="http://www.w3.org/2000/svg">
<circle cx="17.6613" cy="16.1139" r="14.7288" fill="#CCDAF9" stroke="#C6D8FF" stroke-width="0.994819"/>
<path fill-rule="evenodd" clip-rule="evenodd" d="M19.7213 17.5029L27.9056 11.5372V0.887695L19.7213 8.43108V17.5029Z" fill="#155DFC"/>
<path d="M12.7202 4.0924L0.887451 24.2081L9.61611 18.1931L12.7202 4.0924Z" fill="#658DE4"/>
<path d="M19.7213 17.5029L12.7202 4.0924L9.61611 18.1931L9.80847 18.5263L19.7213 35.6957V28.6947V22.8769V19.9187V17.5029Z" fill="#155DFC"/>
<path d="M19.7213 28.6947L28.3986 22.8276L28.8423 13.7558L19.7213 19.9187V22.8769V28.6947Z" fill="#00558A"/>
<path d="M27.6052 0.561523C27.7348 0.442229 27.9224 0.410748 28.0837 0.481445C28.2451 0.55219 28.3494 0.711542 28.3494 0.887695V11.5371C28.3494 11.6789 28.2813 11.812 28.1667 11.8955L20.1648 17.7275V19.082L28.5935 13.3877C28.7327 13.2936 28.9139 13.2867 29.0603 13.3691C29.2066 13.4516 29.294 13.6097 29.2859 13.7773L28.8416 22.8496C28.8346 22.989 28.7628 23.1171 28.6472 23.1953L20.1648 28.9297V35.6953C20.1648 35.8961 20.0297 36.072 19.8357 36.124C19.6419 36.1758 19.4371 36.0917 19.3367 35.918L9.47241 18.8311L1.1394 24.5732C0.96804 24.6913 0.73705 24.675 0.584717 24.5332C0.432541 24.3915 0.399399 24.1627 0.504639 23.9834L12.3376 3.86719C12.4194 3.72834 12.5701 3.64445 12.7312 3.64844C12.8924 3.65251 13.0394 3.74381 13.114 3.88672L19.2771 15.6924V8.43066C19.2772 8.30685 19.3296 8.18841 19.4207 8.10449L27.6052 0.561523Z" stroke="#0B338C" stroke-width="0.887457" stroke-linejoin="round"/>
</svg>
